<?xml version="1.0" encoding="utf-8"?>
<!-- Generator: Adobe Illustrator 24.2.0, SVG Export Plug-In . SVG Version: 6.00 Build 0)  -->
<svg version="1.1" id="Vrstva_3" xmlns="http://www.w3.org/2000/svg" xmlns:xlink="http://www.w3.org/1999/xlink" x="0px" y="0px"
	 viewBox="0 0 408.5 120.3" style="enable-background:new 0 0 408.5 120.3;" xml:space="preserve">
<style type="text/css">
	.st0{fill:#FFFFFF;}
	.st1{fill:#2575FC;}
	.st2{display:none;fill:none;stroke:#007BFF;stroke-width:4;stroke-miterlimit:10;}
</style>
<path class="st0" d="M5.8,76.8"/>
<polygon class="st1" points="6.8,76.7 9.8,76.7 4.8,89.7 78.3,89.2 70.3,61.2 10.3,60.9 10.3,22.2 72.3,22.2 72.3,47.2 69.3,47.2 
	69.3,25.2 13.3,25.2 13.2,58.2 73.2,58.5 83.3,92.2 0.3,92.2 "/>
<polygon class="st1" points="15.9,71.7 16.9,69.7 28.9,69.7 27.9,71.7 "/>
<polygon class="st1" points="34.9,72.2 35.9,70.2 47.9,70.2 46.9,72.2 "/>
<polygon class="st1" points="52.9,72.2 53.9,70.2 65.9,70.2 64.9,72.2 "/>
<polygon class="st1" points="12.9,81.2 13.9,79.2 26.9,79.2 25.9,81.2 "/>
<polygon class="st1" points="33.9,81.2 34.9,79.2 46.9,79.2 45.9,81.2 "/>
<polygon class="st1" points="52.9,81.2 53.9,79.2 65.9,79.2 64.9,81.2 "/>
<line class="st2" x1="0.3" y1="118.3" x2="408.3" y2="118.3"/>
<line class="st2" x1="0" y1="2.2" x2="408.3" y2="2"/>
<polygon class="st1" points="238.3,44.3 246.3,44.3 246.3,92.3 230.3,92.3 230.3,54.3 "/>
<circle class="st1" cx="238.3" cy="34.3" r="8"/>
<polygon class="st1" points="255.3,56.3 267.3,45.3 297.3,45.3 297.3,58.3 277.3,79.3 298.3,79.3 291,86.7 285.2,92.3 254.3,92.3 
	254.3,79.3 275.3,57.3 254.3,57.3 "/>
<path class="st1" d="M328.3,43.3c-14.9,0-27,11.2-27,25s12.1,25,27,25s27-11.2,27-25S343.2,43.3,328.3,43.3z M328.3,80.3
	c-5,0-9-5.4-9-12s4-12,9-12s9,5.4,9,12S333.3,80.3,328.3,80.3z"/>
<path class="st1" d="M408.4,51.7c-0.2-2.8-9.1-7.4-16.1-7.4s-15,6-15,6v-6l-12.6,0.1l0.4,23.5l0.2,23.1l-0.1,0.3h16v-27c0,0,0-6,6-6
	s5,7,5,7l0.2,25.8c0.4,0,0.8,0,1.3,0.1c0.2,0,0.4,0,0.6,0c0.3,0,0.7,0,1,0.1c0.2,0,0.5-0.1,0.7-0.1c0.1,0,0.2,0,0.2,0
	c0.3,0,0.5-0.1,0.8-0.1c0.4,0,0.8,0.1,1.1,0.1c0.2,0,0.5,0,0.7,0c0.2,0,0.4,0,0.6,0c0,0,0,0,0,0c2.9-0.1,5.9-0.2,8.8-0.1
	c0-2.6,0-5.5,0.1-8.6C408.4,67.4,408.6,54.3,408.4,51.7z"/>
<path class="st1" d="M130.3,31.3h-27l0.5,60.5l29.5,0.5c0,0,33,0,33-30S130.3,31.3,130.3,31.3z M149.3,62.3c-1,20-28,16-28,16v-33
	C121.3,45.3,150.4,40.4,149.3,62.3z"/>
<path class="st1" d="M197.3,43.3c-27,0-25.6,25.2-25.6,25.2s3.2,23.6,25.6,23.8c22,0.2,22-7,22-7l-9-9c0,0-14,11-22-4h32
	C220.3,72.3,224.3,43.3,197.3,43.3z M188.3,63.3c0,0,1-7,9-7s9,7,9,7H188.3z"/>
</svg>
