<svg version="1" xmlns="http://www.w3.org/2000/svg" width="666.667" height="666.667" viewBox="0 0 500.000000 500.000000"><path d="M236.5 110.2c-3.3 6.2-6.2 11.6-6.3 12.1-.2.4 2.9.7 6.9.5l7.4-.3 7.7-10c11.6-14.8 11.6-13.5 0-13.5h-9.8l-5.9 11.2zM34 180v47h23l.2-20.3.3-20.2H93V169H57v-18h39v-18H34v47zM113 180v47h23v-35h8.5l13.3 17.5L171 227h14.2c13.3 0 14-.1 12.6-1.8-.8-.9-7.9-9.8-15.8-19.7l-14.2-17.9 2.3-1.6c5.5-3.5 10.8-9.4 12.9-14.2 1.8-4.3 2.1-6.5 1.8-13.9-.3-7.9-.6-9.1-3.4-13.1-6.8-9.4-16.8-11.8-49.6-11.8H113v47zm43-27.5c3.8 2 5.2 4.6 5.2 10.1 0 5.2-2 8.7-6.1 10.8-2.8 1.5-18 2.9-18.2 1.7-.1-.3-.2-5.9-.3-12.4l-.2-11.7h8.4c5.4 0 9.3.5 11.2 1.5zM195 133.6c0 .4 7.2 12.9 16 27.9l16 27.1V227h23v-38.8l15.5-26.1c8.6-14.4 15.8-26.8 16.1-27.6.5-1.3-1.2-1.5-11.8-1.5h-12.4l-8.9 17c-4.9 9.3-9.3 16.6-9.6 16.2-.4-.4-3.4-5.7-6.8-11.8-3.3-6.1-7.3-13.3-8.9-16l-2.8-4.9-12.7-.3c-7-.1-12.7.1-12.7.4zM294 180v47.3l22.8-.6c29.7-.6 36.8-2.6 46.8-12.7 11.2-11.3 15.7-27.6 12.4-45-3.2-16.6-16.6-30.5-33-34-3-.6-15.3-1.4-27.2-1.7l-21.8-.6V180zm45.5-26.1c2.8 1.4 5.3 2.9 5.7 3.5.3.6 1.6 2.2 2.7 3.5 1.2 1.3 2.1 3 2.1 3.8 0 .7.5 1.3 1.2 1.3.6 0 .9.3.5.6-.3.3-.2 1.7.3 3 1.2 3 1.5 14.7.6 19.4-.9 4.5-4.5 12-5.7 12-.6 0-.8.4-.4.9.3.5-.4 1.2-1.5 1.6-1.1.3-2 1-2 1.5 0 1.8-9 4.2-17.2 4.6l-8.7.4.2-29.5.2-29.4 8.5.2c6.7.2 9.6.7 13.5 2.6zM409.5 134.2c-.3.7-5.2 15.5-11.1 32.8-5.8 17.3-12.8 37.9-15.4 45.8l-4.9 14.3 11.6-.3 11.6-.3 2.9-9.3 2.9-9.2h15.4c10.7 0 15.5.3 15.5 1.1 0 .6 1.2 4.9 2.6 9.5l2.5 8.4h23.6l-14.3-42.8c-7.9-23.5-15.1-44.6-16-47l-1.6-4.2h-12.4c-9.1 0-12.6.3-12.9 1.2zm21 54l.7 2.8H422c-8.2 0-9.1-.2-8.6-1.8 3.7-12.1 7.8-25 8.2-26.2.6-1.3 7.2 17.6 8.9 25.2zM245.9 242.7c-1.3 1.6-1.2 1.7.4.4.9-.7 1.7-1.5 1.7-1.7 0-.8-.8-.3-2.1 1.3zM36.7 247c-3.3 2.6-4.1 6.3-2.3 9.9 1.6 3.1 3.4 4.1 7.1 4.1 1.3 0 3.1-.3 4-.6 2.4-1 4.6-6 3.9-8.9-.8-3.1-4.9-6.5-7.9-6.5-1.2 0-3.4.9-4.8 2zm10.2 3.4c1.2 2.6 1.2 3.3 0 5.4-2.8 5-9.4 4.4-11.3-1-.7-2-.5-3.3.8-5.3 1.4-2.2 2.3-2.6 5.4-2.3 2.9.2 4 .9 5.1 3.2zM67 253v8h2.9c3.1 0 6.1-2.2 6.1-4.4s-3.4-4.6-5.8-3.9c-2 .5-2.2.2-2.2-3 0-2.5.5-3.7 1.8-4 1.3-.4 1.1-.5-.5-.6-2.2-.1-2.3.2-2.3 7.9zm5.9 1.9c2 1.3.5 4.1-2.2 4.1-1.8 0-2.3-.5-2.3-2.5 0-2.6 1.9-3.3 4.5-1.6zM96.4 246.2c-4.7 2.2-5.6 8.6-1.9 12.3 2.4 2.5 8.7 3.5 9.9 1.7.3-.5-1.3-.8-3.6-.8-3.3.1-4.4-.4-6-2.6-4-5.2 1.2-12.4 7.3-10.1 1.6.6 2.9.8 2.9.3 0-2-5.2-2.5-8.6-.8zM123 252.8c-.3 4.5-.2 8.2.3 8.2.4 0 .7-1.8.7-4v-4h8.9l.4 4.2c.2 2.4.4.7.4-3.7s-.2-6.5-.4-4.8c-.4 3.2-.6 3.3-4.8 3.3-4.3 0-4.4 0-4.7-3.8-.2-2.1-.6-.1-.8 4.6zM155.4 246.2c-4.7 2.2-5.6 8.6-1.9 12.3 5.1 5.2 13.5 1.8 13.5-5.4 0-6-6-9.6-11.6-6.9zm7.7 2.1c4.1 3.2 2.5 10-2.6 10.9-3.4.7-7.5-2.5-7.5-5.9 0-5.2 6-8.2 10.1-5zM185 253v8h3c6.1 0 10.2-7.6 6.6-12.2-.7-1-2.5-2.2-4-2.8-5.3-2-5.6-1.7-5.6 7zm7.2-4.3c3.8 3.4 1.3 10.3-3.8 10.3-2.3 0-2.4-.3-2.3-6 .1-5.3.4-6 2.2-6 1.1 0 2.9.7 3.9 1.7zM226 251c0 3.3-.4 6-.9 6-.6 0-3.1-2.5-5.7-5.5s-5.1-5.5-5.6-5.5c-.4 0-.8 3.4-.8 7.5s.3 7.5.8 7.5c.4 0 .5-2.7.4-6-.2-3.6 0-6 .6-6s3.5 2.8 6.6 6.2l5.6 6.3v-8.3c0-4.5-.2-8.2-.5-8.2s-.5 2.7-.5 6zM288.4 246.2c-4.7 2.2-5.6 8.6-1.9 12.3 2.4 2.5 8.7 3.5 9.9 1.7.3-.5-1.3-.8-3.6-.8-3.3.1-4.4-.4-6-2.6-4-5.2 1.2-12.4 7.3-10.1 1.6.6 2.9.8 2.9.3 0-2-5.2-2.5-8.6-.8zM314.7 245.8c-.3.4-.5 4-.6 8v7.2l4.2-.2c3.7-.1 3.8-.2 1-.5-3-.4-3.3-.7-3.3-3.8 0-3.1.3-3.4 3.3-3.8l3.2-.4-3.2-.1c-2.9-.2-3.3-.5-3.3-3.1s.4-3 3.3-3.4l3.2-.4-3.7-.1c-2-.1-3.9.1-4.1.6zM353 251c0 3.3-.3 6-.7 6-.4 0-3.3-2.6-6.5-5.7l-5.8-5.7.2 7.9c.2 7.7.2 7.7.5 1.7.2-3.4.7-6.2 1.1-6.2.4 0 3.3 2.8 6.4 6.2l5.7 6.3.1-8.3c0-4.5-.2-8.2-.5-8.2s-.5 2.7-.5 6zM372.3 245.7c1.4.4 1.7 1.6 1.7 7.9 0 4.3.4 7.4 1 7.4s1-3.1 1-7.4c0-6.3.3-7.5 1.8-7.9.9-.3-.3-.5-2.8-.5s-3.7.2-2.7.5zM396.7 245.7c-.4.3-.6 4-.5 8.2.1 4.2.3 5.9.5 3.8.2-2 .7-3.7 1.1-3.7.4 0 1.7 1.6 3 3.6s2.6 3.3 2.9 3c.3-.3-.4-1.7-1.6-3.2-1.1-1.4-1.8-3-1.5-3.5.3-.5-.4-.9-1.5-.9-1.7 0-2.1-.6-2.1-3.4 0-2.4.5-3.6 1.8-3.9 1.4-.4 1.4-.5.1-.6-.9 0-1.9.2-2.2.6zM422.2 251.5c-.2 7.8.7 9.5 4.8 9.5 4.2 0 6-2.8 6-9.3 0-3.1-.3-5.7-.8-5.7-.4 0-.6 1.9-.4 4.2.5 6-1.1 9.8-4.2 9.8-3.5 0-4.5-1.8-4.9-9l-.3-6.5-.2 7z"/><path d="M72.8 248.7c.5 2.1.7 2.3 1 .9.2-1 0-2.2-.6-2.8-.6-.6-.7 0-.4 1.9zM245.3 253.5c0 4.4.2 6.1.4 3.7.2-2.3.2-5.9 0-8-.2-2-.4-.1-.4 4.3zM402.2 248.2c.7 1.5 1.5 2.3 1.7 1.7.2-.6-.4-1.8-1.3-2.7-1.5-1.5-1.5-1.5-.4 1zM450.9 253.6c-.8 4.1-1.2 7.4-.7 7.4.4 0 1-2.3 1.4-5 .4-2.8 1-5 1.3-5 .4 0 1.8 2.3 3.2 5.2l2.6 5.2 1.8-5.2c2.1-5.7 3.2-6.5 4-2.7.3 1.4.7 3.7 1 5.1.4 1.5.8 2.4 1.1 2.2.2-.3 0-2.7-.6-5.4-2.3-10.8-1.9-10.5-4.5-4.4-1.3 3-2.7 5.6-3.2 5.7-.5.2-1.7-2-2.8-4.8-1.1-2.8-2.2-5.2-2.5-5.4-.3-.2-1.3 3-2.1 7.1zM71.9 277.1c-.5.3-.8 20.5-.7 48.5l.3 47.9 14.7.3 14.8.3.2-46.3c.2-25.5.2-47.3 0-48.5-.3-2.1-.8-2.2-14.4-2.5-7.7-.2-14.4 0-14.9.3zM181.7 276.6c-.4.4-.7 15-.7 32.5v31.8l2.3.3c1.2.2 7.9.2 15 0l12.7-.3-.2-32.2-.3-32.2-14.1-.3c-7.7-.1-14.3.1-14.7.4zM254.5 277.2c-.3.7-.4 22.7-.3 48.8l.3 47.5h30v-97l-14.8-.3c-11.2-.2-14.9 0-15.2 1zM291.7 276.7c-.4.3-.7 15-.7 32.5V341h30v-65h-14.3c-7.9 0-14.7.3-15 .7zM452.3 276.8l-14.3.3v97l14.8-.3 14.7-.3.3-47.9c.1-26.4-.1-48.2-.5-48.5-.5-.3-7.2-.5-15-.3zM35 325.2v48.3l14.7-.2 14.8-.2.3-48L65 277H35v48.2zM108 309v32h30v-64h-30v32zM145 301.5V326h29v-49h-29v24.5zM218 325.5V374h30v-97h-30v48.5zM328 300.5V324h30v-47h-30v23.5zM364.2 308.7l.3 31.8 14.8.3 14.7.3V277h-30.1l.3 31.7zM401 325v48h30v-96h-30v48z"/></svg>